<svg width="125" height="42" viewBox="0 0 125 42" fill="none" xmlns="http://www.w3.org/2000/svg">
<path d="M0.32 41V11.2H4.24V41H0.32ZM0.44 7.12L3.6 0.8H8.64L4.16 7.12H0.44ZM20.4269 41.48C18.3202 41.48 16.4402 40.9867 14.7869 40C13.1602 39.0133 11.8802 37.6667 10.9469 35.96C10.0135 34.2533 9.54688 32.3333 9.54688 30.2C9.54688 28.04 10.0135 26.12 10.9469 24.44C11.8802 22.76 13.1602 21.4267 14.7869 20.44C16.4402 19.4533 18.3202 18.96 20.4269 18.96C21.8402 18.96 23.1602 19.2133 24.3869 19.72C25.6135 20.2267 26.6935 20.9067 27.6269 21.76C28.5602 22.6133 29.2402 23.6133 29.6669 24.76L26.3469 26.36C25.8402 25.24 25.0669 24.3333 24.0269 23.64C22.9869 22.92 21.7869 22.56 20.4269 22.56C19.1202 22.56 17.9335 22.8933 16.8669 23.56C15.8269 24.2267 15.0002 25.1333 14.3869 26.28C13.7735 27.4267 13.4669 28.7467 13.4669 30.24C13.4669 31.68 13.7735 32.9867 14.3869 34.16C15.0002 35.3067 15.8269 36.2133 16.8669 36.88C17.9335 37.5467 19.1202 37.88 20.4269 37.88C21.7869 37.88 22.9869 37.5333 24.0269 36.84C25.0669 36.12 25.8402 35.1733 26.3469 34L29.6669 35.68C29.2402 36.8 28.5602 37.8 27.6269 38.68C26.6935 39.5333 25.6135 40.2133 24.3869 40.72C23.1602 41.2267 21.8402 41.48 20.4269 41.48ZM44.7684 41.48C42.6884 41.48 40.8084 41 39.1284 40.04C37.4484 39.0533 36.1151 37.7067 35.1284 36C34.1418 34.2933 33.6484 32.36 33.6484 30.2C33.6484 28.04 34.1284 26.12 35.0884 24.44C36.0751 22.76 37.4084 21.4267 39.0884 20.44C40.7684 19.4533 42.6618 18.96 44.7684 18.96C46.8484 18.96 48.7284 19.4533 50.4084 20.44C52.0884 21.4 53.4084 22.72 54.3684 24.4C55.3551 26.08 55.8484 28.0133 55.8484 30.2C55.8484 32.3867 55.3418 34.3333 54.3284 36.04C53.3151 37.72 51.9684 39.0533 50.2884 40.04C48.6351 41 46.7951 41.48 44.7684 41.48ZM44.7684 37.88C46.1018 37.88 47.3018 37.5467 48.3684 36.88C49.4618 36.2133 50.3151 35.2933 50.9284 34.12C51.5684 32.9467 51.8884 31.64 51.8884 30.2C51.8884 28.7333 51.5684 27.44 50.9284 26.32C50.3151 25.1733 49.4618 24.2667 48.3684 23.6C47.3018 22.9067 46.1018 22.56 44.7684 22.56C43.4084 22.56 42.1818 22.9067 41.0884 23.6C40.0218 24.2667 39.1684 25.1733 38.5284 26.32C37.8884 27.44 37.5684 28.7333 37.5684 30.2C37.5684 31.64 37.8884 32.9467 38.5284 34.12C39.1684 35.2933 40.0218 36.2133 41.0884 36.88C42.1818 37.5467 43.4084 37.88 44.7684 37.88ZM60.7003 41V19.44H64.3403V23.64L63.7403 23.28C64.2736 21.92 65.127 20.8667 66.3003 20.12C67.5003 19.3467 68.9003 18.96 70.5003 18.96C72.047 18.96 73.4203 19.3067 74.6203 20C75.847 20.6933 76.807 21.6533 77.5003 22.88C78.2203 24.1067 78.5803 25.4933 78.5803 27.04V41H74.8203V28.24C74.8203 27.04 74.607 26.0267 74.1803 25.2C73.7536 24.3733 73.1403 23.7333 72.3403 23.28C71.567 22.8 70.6736 22.56 69.6603 22.56C68.647 22.56 67.7403 22.8 66.9403 23.28C66.167 23.7333 65.5536 24.3867 65.1003 25.24C64.647 26.0667 64.4203 27.0667 64.4203 28.24V41H60.7003ZM93.8234 41.48C91.7434 41.48 89.8901 40.9867 88.2634 40C86.6368 39.0133 85.3568 37.6667 84.4234 35.96C83.4901 34.2267 83.0234 32.2933 83.0234 30.16C83.0234 28 83.4768 26.08 84.3834 24.4C85.3168 22.72 86.5701 21.4 88.1434 20.44C89.7434 19.4533 91.5301 18.96 93.5034 18.96C95.1034 18.96 96.5168 19.2533 97.7434 19.84C98.9968 20.4 100.05 21.1733 100.903 22.16C101.783 23.12 102.45 24.2267 102.903 25.48C103.383 26.7067 103.623 27.9867 103.623 29.32C103.623 29.6133 103.597 29.9467 103.543 30.32C103.517 30.6667 103.477 31 103.423 31.32H85.7434V28.12H101.263L99.5034 29.56C99.7434 28.1733 99.6101 26.9333 99.1034 25.84C98.5968 24.7467 97.8501 23.88 96.8634 23.24C95.8768 22.6 94.7568 22.28 93.5034 22.28C92.2501 22.28 91.1034 22.6 90.0634 23.24C89.0234 23.88 88.2101 24.8 87.6234 26C87.0634 27.1733 86.8368 28.5733 86.9434 30.2C86.8368 31.7733 87.0768 33.16 87.6634 34.36C88.2768 35.5333 89.1301 36.4533 90.2234 37.12C91.3434 37.76 92.5568 38.08 93.8634 38.08C95.3034 38.08 96.5168 37.7467 97.5034 37.08C98.4901 36.4133 99.2901 35.56 99.9034 34.52L103.023 36.12C102.597 37.1067 101.93 38.0133 101.023 38.84C100.143 39.64 99.0901 40.28 97.8634 40.76C96.6634 41.24 95.3168 41.48 93.8234 41.48ZM116.194 41.48C114.034 41.48 112.154 40.9467 110.554 39.88C108.954 38.8133 107.82 37.3733 107.154 35.56L110.114 34.12C110.727 35.4 111.567 36.4133 112.634 37.16C113.7 37.9067 114.887 38.28 116.194 38.28C117.367 38.28 118.34 38 119.114 37.44C119.887 36.88 120.274 36.1467 120.274 35.24C120.274 34.6 120.087 34.0933 119.714 33.72C119.367 33.32 118.94 33.0133 118.434 32.8C117.927 32.56 117.46 32.3867 117.034 32.28L113.794 31.36C111.847 30.8 110.42 30 109.514 28.96C108.634 27.92 108.194 26.7067 108.194 25.32C108.194 24.04 108.514 22.9333 109.154 22C109.82 21.04 110.714 20.2933 111.834 19.76C112.98 19.2267 114.26 18.96 115.674 18.96C117.567 18.96 119.26 19.44 120.754 20.4C122.274 21.36 123.354 22.7067 123.994 24.44L120.954 25.84C120.474 24.72 119.754 23.84 118.794 23.2C117.834 22.5333 116.754 22.2 115.554 22.2C114.46 22.2 113.594 22.48 112.954 23.04C112.314 23.5733 111.994 24.2533 111.994 25.08C111.994 25.6933 112.154 26.2 112.474 26.6C112.794 26.9733 113.18 27.2667 113.634 27.48C114.087 27.6667 114.527 27.8267 114.954 27.96L118.474 29C120.234 29.5067 121.594 30.2933 122.554 31.36C123.54 32.4267 124.034 33.7067 124.034 35.2C124.034 36.4 123.7 37.48 123.034 38.44C122.367 39.4 121.447 40.1467 120.274 40.68C119.1 41.2133 117.74 41.48 116.194 41.48Z" fill="#09090A"/>
</svg>
